<svg height="512pt" viewBox="-80 0 512 512" width="512pt" xmlns="http://www.w3.org/2000/svg"><path d="m281.742188 41.8125c-27.757813-26.964844-65.308594-41.8125-105.742188-41.8125s-77.984375 14.847656-105.742188 41.8125c-30.261718 29.394531-46.257812 70.265625-46.257812 118.1875 0 103.363281 52.210938 208 152 208s152-104.636719 152-208c0-47.921875-15.996094-88.792969-46.257812-118.1875zm0 0" fill="#bcd76d"/><path d="m96 176c0-47.921875 15.996094-88.792969 46.257812-118.1875 27.144532-26.371094 63.664063-41.144531 103.078126-41.78125-20.984376-10.472656-44.621094-16.03125-69.335938-16.03125-40.433594 0-77.984375 14.847656-105.742188 41.8125-30.261718 29.394531-46.257812 70.265625-46.257812 118.1875 0 103.363281 52.210938 208 152 208 3.054688 0 6.0625-.101562 9.023438-.292969-58.660157-33.34375-89.023438-112.890625-89.023438-191.707031zm0 0" fill="#a6ca3c"/><g fill="#6daf47"><path d="m238.59375 43.578125c-16.074219-28.101563-38.300781-43.578125-62.59375-43.578125s-46.519531 15.476562-62.59375 43.578125c-16.621094 29.0625-25.40625 69.320313-25.40625 116.421875 0 100.179688 27.539062 208 88 208s88-107.820312 88-208c0-47.101562-8.785156-87.359375-25.40625-116.421875zm-62.59375 308.421875c-26.40625 0-43.101562-31.652344-52.453125-58.207031-12.421875-35.261719-19.546875-84.027344-19.546875-133.792969 0-55.992188 12.667969-89.894531 23.296875-108.480469 11.171875-19.535156 25.402344-31.578125 40.703125-34.699219v295.179688c0 4.417969 3.582031 8 8 8s8-3.582031 8-8v-295.179688c15.300781 3.121094 29.53125 15.164063 40.703125 34.699219 10.628906 18.585938 23.296875 52.488281 23.296875 108.480469 0 49.765625-7.125 98.53125-19.546875 133.792969-9.351563 26.554687-26.046875 58.207031-52.453125 58.207031zm0 0"/><path d="m311.992188 296.003906c-1.199219 0-2.421876-.273437-3.570313-.847656l-32-16c-3.949219-1.976562-5.554687-6.78125-3.578125-10.734375s6.785156-5.554687 10.734375-3.578125l32 16c3.953125 1.976562 5.554687 6.78125 3.578125 10.734375-1.402344 2.804687-4.226562 4.425781-7.164062 4.425781zm0 0"/><path d="m335.996094 240.003906c-.988282 0-1.992188-.1875-2.96875-.574218l-40-16c-4.101563-1.644532-6.097656-6.296876-4.457032-10.402344 1.644532-4.101563 6.296876-6.09375 10.402344-4.457032l40 16c4.101563 1.644532 6.097656 6.296876 4.457032 10.402344-1.253907 3.125-4.257813 5.03125-7.433594 5.03125zm0 0"/><path d="m344 176h-40c-4.417969 0-8-3.582031-8-8s3.582031-8 8-8h40c4.417969 0 8 3.582031 8 8s-3.582031 8-8 8zm0 0"/><path d="m296.007812 128c-2.71875 0-5.367187-1.382812-6.867187-3.882812-2.273437-3.789063-1.046875-8.703126 2.742187-10.976563l40-24c3.789063-2.273437 8.703126-1.042969 10.976563 2.742187 2.273437 3.789063 1.046875 8.703126-2.742187 10.976563l-40 24c-1.289063.773437-2.710938 1.140625-4.109376 1.140625zm0 0"/><path d="m263.996094 80c-1.753906 0-3.519532-.574219-4.992188-1.753906-3.453125-2.757813-4.011718-7.792969-1.25-11.242188l32-40c2.757813-3.453125 7.792969-4.011718 11.242188-1.25 3.449218 2.757813 4.011718 7.792969 1.25 11.242188l-32 40c-1.578125 1.976562-3.902344 3.003906-6.25 3.003906zm0 0"/><path d="m40.007812 296.003906c-2.9375 0-5.761718-1.621094-7.164062-4.425781-1.976562-3.953125-.375-8.757813 3.578125-10.734375l32-16c3.953125-1.976562 8.757813-.375 10.734375 3.578125s.375 8.757813-3.578125 10.734375l-32 16c-1.148437.574219-2.371094.847656-3.570313.847656zm0 0"/><path d="m16.003906 240.003906c-3.175781 0-6.179687-1.90625-7.433594-5.03125-1.640624-4.105468.355469-8.757812 4.457032-10.402344l40-16c4.101562-1.640624 8.757812.355469 10.402344 4.457032 1.640624 4.105468-.355469 8.757812-4.457032 10.402344l-40 16c-.976562.386718-1.980468.574218-2.96875.574218zm0 0"/><path d="m48 176h-40c-4.417969 0-8-3.582031-8-8s3.582031-8 8-8h40c4.417969 0 8 3.582031 8 8s-3.582031 8-8 8zm0 0"/><path d="m55.992188 128c-1.402344 0-2.820313-.367188-4.109376-1.140625l-40-24c-3.789062-2.273437-5.015624-7.1875-2.742187-10.976563 2.269531-3.785156 7.183594-5.015624 10.976563-2.742187l40 24c3.789062 2.273437 5.015624 7.1875 2.742187 10.976563-1.5 2.5-4.148437 3.882812-6.867187 3.882812zm0 0"/><path d="m88.003906 80c-2.347656 0-4.671875-1.027344-6.25-3.003906l-32-40c-2.761718-3.449219-2.203125-8.484375 1.25-11.242188 3.449219-2.761718 8.484375-2.203125 11.242188 1.25l32 40c2.761718 3.449219 2.203125 8.480469-1.25 11.242188-1.472656 1.179687-3.238282 1.753906-4.992188 1.753906zm0 0"/></g><path d="m302.105469 306.828125c-1.519531-1.792969-3.753907-2.828125-6.105469-2.828125h-240c-2.351562 0-4.585938 1.035156-6.105469 2.828125s-2.171875 4.167969-1.785156 6.488281l27.542969 165.257813c3.226562 19.367187 19.820312 33.425781 39.457031 33.425781h121.78125c19.636719 0 36.230469-14.058594 39.457031-33.425781l27.542969-165.257813c.386719-2.320312-.265625-4.691406-1.785156-6.488281zm0 0" fill="#dddfdc"/><path d="m163.109375 496c-19.636719 0-36.230469-14.058594-39.457031-33.425781l-26.429688-158.574219h-41.222656c-2.351562 0-4.585938 1.035156-6.105469 2.828125s-2.171875 4.167969-1.785156 6.488281l27.542969 165.257813c3.226562 19.367187 19.820312 33.425781 39.457031 33.425781h121.78125c13.023437 0 24.703125-6.1875 32.035156-16zm0 0" fill="#bcbfb9"/><path d="m58.554688 376 12 72h50.667968l-12-72zm0 0" fill="#e0c13f"/><path d="m293.445312 376h-184.222656l12 72h160.222656zm0 0" fill="#f6de7c"/></svg>