<svg id="Layer_1" enable-background="new 0 0 511.5 511.5" height="512" viewBox="0 0 511.5 511.5" width="512" xmlns="http://www.w3.org/2000/svg"><g><path d="m319.75 303.5h48v-112c0-17.673 14.327-32 32-32 17.673 0 32 14.327 32 32v176h-112" fill="#aae79a"/><path d="m319.75 303.5h24v64h-24z" fill="#52cd8d"/><path d="m319.75 511.5v-440c0-35.346-28.654-64-64-64-35.346 0-64 28.654-64 64v152h-48v-64c0-17.673-14.327-32-32-32-17.673 0-32 14.327-32 32v128h112v224" fill="#aae79a"/><path d="m319.75 71.5v440h-24v-489.97c14.63 11.73 24 29.75 24 49.97z" fill="#52cd8d"/><g><path d="m224.25 351.5h15v16h-15z" fill="#fff"/></g><g><path d="m392.25 183.5h15v16h-15z" fill="#fff"/></g><g><path d="m183.75 248h16v15h-16z" fill="#fff"/></g><g><path d="m224.25 383.5h15v128.001h-15z"/><path d="m104.25 151.5v111.5h63.5v-15h-48.5v-96.5z"/><path d="m455.75 231v-15h-16.5v-24.5c0-21.78-17.72-39.5-39.5-39.5s-39.5 17.72-39.5 39.5v56.5h-16.5v15h16.5v33h-33v-81h16.5v-15h-16.5v-65h16.5v-15h-16.5v-48.5c0-39.425-32.075-71.5-71.5-71.5s-71.5 32.075-71.5 71.5v144.5h-33v-17h16.5v-15h-16.5v-24.5c0-21.78-17.72-39.5-39.5-39.5s-39.5 17.72-39.5 39.5v72.5h-16.5v15h16.5v48h112v65h-16.5v15h16.5v81h-16.5v15h16.5v40.5h15v-231.5h-112v-120.5c0-13.509 10.991-24.5 24.5-24.5s24.5 10.991 24.5 24.5v71.5h63v-159.5c0-19.5 9.931-36.723 25-46.881v127.381h-16.5v15h16.5v168.5h15v-318.036c5.222-1.598 10.761-2.464 16.5-2.464s11.278.866 16.5 2.464v390.536h-16.5v15h16.5v88.5h15v-224.5h16.5v-15h-16.5v-247.381c15.069 10.158 25 27.381 25 46.881v440h15v-136.5h112v-64h16.5v-15h-16.5v-65zm-31.5 129h-97v-17h80v-127.5h-15v112.5h-65v-17h48v-119.5c0-13.509 10.991-24.5 24.5-24.5s24.5 10.991 24.5 24.5z"/></g></g></svg>