<svg id="Capa_1" enable-background="new 0 0 512 512" height="512" viewBox="0 0 512 512" width="512" xmlns="http://www.w3.org/2000/svg"><path d="m434.013 402.323h-26.929c15.107 0 27.354-12.247 27.354-27.355 0-15.108-12.247-27.356-27.354-27.356h-302.168c-15.107 0-27.354 12.247-27.354 27.356 0 15.108 12.247 27.355 27.354 27.355h-26.929c-15.107 0-27.354 12.248-27.354 27.356 0 15.108 12.247 27.355 27.354 27.355h356.027c15.107 0 27.354-12.247 27.354-27.355-.001-15.108-12.247-27.356-27.355-27.356z" fill="#ddb9b6"/><path d="m256 54.965c-35.938 0-65.072 29.133-65.072 65.072v227.575h65.072z" fill="#b8ecbc"/><path d="m190.928 230.393h-44.575v-51.316c0-16.568-13.432-30-30-30s-30 13.432-30 30v81.316c0 16.568 13.432 30 30 30h74.575z" fill="#e7f9e9"/><path d="m321.072 120.037c0-35.938-29.134-65.072-65.072-65.072v292.647h65.072z" fill="#d0f2d2"/><path d="m395.647 89.04c-16.568 0-30 13.432-30 30v51.316h-44.575v60h74.575c16.568 0 30-13.432 30-30v-81.316c0-16.568-13.432-30-30-30z" fill="#b8ecbc"/><path d="m356.14 412.319c-4.171 0-8.016-2.695-9.415-6.631-1.379-3.88-.202-8.327 2.947-10.99 3.287-2.78 8.085-3.118 11.744-.864 3.499 2.155 5.336 6.421 4.524 10.445-.932 4.618-5.085 8.04-9.8 8.04z"/><path d="m502 447.034h-34.915c2.734-5.189 4.282-11.095 4.282-17.355 0-18.593-13.653-34.057-31.46-36.891 2.889-5.3 4.531-11.372 4.531-17.82 0-20.598-16.757-37.355-37.354-37.355h-76.012v-97.256h64.574c22.056 0 40-17.944 40-40v-81.317c0-22.056-17.944-40-40-40s-40 17.944-40 40v41.316h-24.574v-40.319c0-41.395-33.678-75.071-75.072-75.071s-75.072 33.677-75.072 75.071v100.355h-24.574v-41.316c0-22.056-17.944-40-40-40s-40 17.944-40 40v81.316c0 22.056 17.944 40 40 40h64.574v37.22h-76.012c-20.598 0-37.354 16.758-37.354 37.355 0 6.448 1.643 12.521 4.531 17.82-17.807 2.834-31.46 18.298-31.46 36.891 0 6.261 1.548 12.167 4.282 17.355h-34.915c-5.523 0-10 4.477-10 10 0 5.522 4.477 10 10 10h492c5.522 0 10-4.478 10-10 0-5.521-4.478-9.999-10-9.999zm-136.353-266.678c5.522 0 10-4.477 10-10v-51.316c0-11.028 8.972-20 20-20s20 8.972 20 20v81.316c0 11.028-8.972 20-20 20h-64.574v-40zm-54.575-60.319v217.575h-45.072v-271.737c25.609 4.717 45.072 27.21 45.072 54.162zm-194.718 160.356c-11.028 0-20-8.972-20-20v-81.316c0-11.028 8.972-20 20-20s20 8.972 20 20v51.316c0 5.522 4.478 10 10 10h34.574v40zm84.574-160.356c0-26.952 19.463-49.445 45.072-54.162v271.737h-45.072zm-122.942 326.997c-9.568 0-17.353-7.785-17.353-17.355s7.785-17.355 17.353-17.355h233.07c5.522 0 10-4.478 10-10s-4.478-10-10-10h-206.14c-9.569 0-17.354-7.785-17.354-17.355s7.785-17.355 17.354-17.355h302.168c9.569 0 17.354 7.785 17.354 17.355s-7.785 17.355-17.354 17.355c-5.523 0-10 4.478-10 10s4.477 10 10 10h26.93c9.568 0 17.353 7.785 17.353 17.355s-7.785 17.355-17.353 17.355z"/></svg>