<svg id="Layer_3" enable-background="new 0 0 64 64" height="512" viewBox="0 0 64 64" width="512" xmlns="http://www.w3.org/2000/svg"><path d="m12 47v-24c0-1.657 1.343-3 3-3 1.657 0 3 1.343 3 3v24" fill="#7ecb92"/><path d="m46 53v-28c0-1.657 1.343-3 3-3 1.657 0 3 1.343 3 3v28.115" fill="#7ecb92"/><path d="m5.5 49.5c2.241-2.241 5.28-3.5 8.45-3.5h20.1c3.169 0 6.209 1.259 8.45 3.5 2.241 2.241 5.28 3.5 8.45 3.5 1.313 0 2.572.521 3.5 1.45l7.55 7.55h-60v-4.05c0-3.17 1.259-6.209 3.5-8.45z" fill="#ab927a"/><path d="m18 32h2c1.105 0 2-.895 2-2v-4c0-1.105.895-2 2-2 1.105 0 2 .895 2 2v4c0 3.314-2.686 6-6 6h-2" fill="#3f6649"/><path d="m12 36h-2c-1.105 0-2-.895-2-2v-4c0-1.105-.895-2-2-2-1.105 0-2 .895-2 2v4c0 3.314 2.686 6 6 6h2" fill="#3f6649"/><path d="m46 34h-2c-1.105 0-2-.895-2-2v-4c0-1.105-.895-2-2-2-1.105 0-2 .895-2 2v4c0 3.314 2.686 6 6 6h2" fill="#3f6649"/><path d="m52 38h2c1.105 0 2-.895 2-2v-4c0-1.105.895-2 2-2 1.105 0 2 .895 2 2v4c0 3.314-2.686 6-6 6h-2" fill="#3f6649"/><circle cx="32" cy="12" fill="#ba9a52" r="4"/><ellipse cx="30.5" cy="12" fill="#f8cd6d" rx="2.5" ry="3.703"/><path d="m15 12c1.657 0 3-1.343 3-3s-1.343-3-3-3c-.382 0-.744.078-1.08.208-.367-1.829-1.982-3.208-3.92-3.208s-3.553 1.379-3.92 3.208c-.336-.13-.698-.208-1.08-.208-1.657 0-3 1.343-3 3s1.343 3 3 3z" fill="#4a92bb"/><g fill="#3f6649"><path d="m12 25h3v2h-3z"/><path d="m15 29h3v2h-3z"/><path d="m12 33h3v2h-3z"/><path d="m15 37h3v2h-3z"/><path d="m12 41h3v2h-3z"/><path d="m46 27h3v2h-3z"/><path d="m49 31h3v2h-3z"/><path d="m46 35h3v2h-3z"/><path d="m49 39h3v2h-3z"/><path d="m46 43h3v2h-3z"/><path d="m49 47h3v2h-3z"/></g><path d="m7.015 58.063-1.996-.126c.146-2.319 1.131-4.501 2.774-6.144 1.801-1.801 4.196-2.793 6.743-2.793h2.464v2h-2.464c-2.013 0-3.905.784-5.329 2.207-1.298 1.298-2.077 3.023-2.192 4.856z" fill="#806e5c"/><path d="m59 18c1.657 0 3-1.343 3-3s-1.343-3-3-3c-.382 0-.744.078-1.08.208-.367-1.829-1.982-3.208-3.92-3.208s-3.553 1.379-3.92 3.208c-.336-.13-.698-.208-1.08-.208-1.657 0-3 1.343-3 3s1.343 3 3 3z" fill="#4a92bb"/><path d="m31 3h2v2h-2z" fill="#f8cd6d"/><path d="m31 19h2v2h-2z" fill="#f8cd6d"/><path d="m39 11h2v2h-2z" fill="#f8cd6d"/><path d="m23 11h2v2h-2z" fill="#f8cd6d"/><path d="m24 5.586h2v2.828h-2z" fill="#f8cd6d" transform="matrix(.707 -.707 .707 .707 2.373 19.728)"/><path d="m24.586 17h2.828v2h-2.828z" fill="#f8cd6d" transform="matrix(.707 -.707 .707 .707 -5.113 23.657)"/><path d="m37 16.586h2v2.828h-2z" fill="#f8cd6d" transform="matrix(.707 -.707 .707 .707 -1.598 32.142)"/><path d="m36.586 5h2.828v2h-2.828z" fill="#f8cd6d" transform="matrix(.707 -.707 .707 .707 6.887 28.627)"/></svg>