<svg height="512pt" viewBox="-10 0 512 512.00025" width="512pt" xmlns="http://www.w3.org/2000/svg"><path d="m407.636719 512h-345.367188c-16.53125 0-27.773437-16.769531-21.503906-32.0625l6.578125-16.035156c5.664062-13.8125 19.117188-22.832032 34.042969-22.832032h307.132812c14.929688 0 28.378907 9.019532 34.042969 22.832032l6.578125 16.035156c6.273437 15.292969-4.972656 32.0625-21.503906 32.0625zm0 0" fill="#e1b89a"/><path d="m217.574219 441.070312h-136.1875c-14.925781 0-28.378907 9.019532-34.042969 22.832032l-6.578125 16.035156c-6.273437 15.292969 4.972656 32.0625 21.503906 32.0625h166.230469c-13.492188-19.464844-15.769531-50-10.925781-70.929688zm0 0" fill="#d2996f"/><path d="m383.378906 482.5625c-2.84375-2.839844-7.449218-2.839844-10.289062 0-2.84375 2.839844-2.84375 7.449219 0 10.289062 2.839844 2.839844 7.445312 2.839844 10.289062 0 2.839844-2.839843 2.839844-7.449218 0-10.289062zm0 0" fill="#d2996f"/><path d="m266.636719 463.226562c-.925781-3.910156-4.847657-6.328124-8.757813-5.402343s-6.328125 4.847656-5.402344 8.757812c.925782 3.90625 4.847657 6.328125 8.757813 5.402344s6.328125-4.847656 5.402344-8.757813zm0 0" fill="#d2996f"/><path d="m176.777344 484.683594c-2.839844-2.839844-7.445313-2.839844-10.289063 0-2.839843 2.839844-2.839843 7.445312 0 10.289062 2.84375 2.839844 7.449219 2.839844 10.289063 0 2.839844-2.84375 2.839844-7.449218 0-10.289062zm0 0" fill="#e1b89a"/><path d="m97.777344 474.863281c-.921875-3.910156-4.835938-6.335937-8.75-5.414062-3.910156.921875-6.332032 4.835937-5.414063 8.746093.921875 3.914063 4.835938 6.335938 8.746094 5.417969 3.914063-.921875 6.335937-4.835937 5.417969-8.75zm0 0" fill="#e1b89a"/><path d="m218.992188 5.109375-7.855469 10.660156c-10.652344 14.453125-10.652344 34.15625 0 48.605469l7.855469 10.660156c5.023437 6.8125 15.210937 6.8125 20.234374 0l7.855469-10.660156c10.648438-14.449219 10.648438-34.152344 0-48.605469l-7.855469-10.660156c-5.023437-6.8125-15.210937-6.8125-20.234374 0zm0 0" fill="#de5c6e"/><path d="m182.71875 29.390625 25.15625 10.8125c12.882812 5.535156 21.234375 18.210937 21.234375 32.234375v11.542969h-23.339844c-19.164062 0-34.695312-15.535157-34.695312-34.695313v-12.222656c0-5.996094 6.132812-10.039062 11.644531-7.671875zm0 0" fill="#e8899e"/><path d="m275.503906 29.390625-25.160156 10.8125c-12.882812 5.535156-21.234375 18.210937-21.234375 32.234375v11.542969h23.34375c19.160156 0 34.691406-15.535157 34.691406-34.695313v-12.222656c0-5.996094-6.132812-10.039062-11.640625-7.671875zm0 0" fill="#e8899e"/><path d="m455.867188 129.671875h-62.683594l-6.636719-41.195313c-3.765625-23.382812 14.292969-44.582031 37.976563-44.582031 23.6875 0 41.746093 21.199219 37.980468 44.582031zm0 0" fill="#8ee2cf"/><path d="m433.84375 91.3125c-16.214844 0-31.675781 4.957031-44.585938 13.988281l3.925782 24.371094h62.683594l5.378906-33.394531c-8.648438-3.25-17.890625-4.964844-27.402344-4.964844zm0 0" fill="#6fce91"/><path d="m470.785156 215.25-162.25 130.15625-50.957031-50.957031 130.15625-162.253907c22.015625-27.441406 62.984375-29.683593 87.859375-4.804687 24.875 24.875 22.632812 65.84375-4.808594 87.859375zm0 0" fill="#8ee2cf"/><path d="m90.363281 216.5625 111.839844 139.421875-43.78125 43.78125-139.421875-111.835937c-23.578125-18.917969-25.503906-54.121094-4.128906-75.496094s56.578125-19.449219 75.492187 4.128906zm0 0" fill="#8ee2cf"/><path d="m128.371094 375.664062 30.046875 24.105469 43.785156-43.785156-91.488281-114.050781zm0 0" fill="#6fce91"/><path d="m353.417969 197.167969c1.027343-7.78125 1.3125-15.578125.886719-23.296875l-96.726563 120.578125 50.957031 50.957031 28.308594-22.710938zm0 0" fill="#6fce91"/><path d="m302.273438 441.070312h-146.328126l-32.53125-246.359374c-8.433593-63.871094 41.269532-120.570313 105.695313-120.570313 64.421875 0 114.128906 56.699219 105.695313 120.570313zm0 0" fill="#8ee2cf"/><path d="m190.300781 81.414062c-44.179687 17.261719-73.519531 63.058594-66.886719 113.296876l32.53125 246.359374h83.679688c-61.878906-104.636718-75.246094-285.441406-49.324219-359.65625zm0 0" fill="#6fce91"/><path d="m186.359375 219.746094c0 10.996094-11.191406 19.90625-24.996094 19.90625-13.804687 0-24.996093-8.910156-24.996093-19.90625 0-10.992188 11.191406-19.90625 24.996093-19.90625 13.804688 0 24.996094 8.914062 24.996094 19.90625zm0 0" fill="#fff"/><path d="m271.859375 219.746094c0 10.996094 11.191406 19.90625 24.996094 19.90625 13.804687 0 24.996093-8.910156 24.996093-19.90625 0-10.992188-11.191406-19.90625-24.996093-19.90625-13.804688 0-24.996094 8.914062-24.996094 19.90625zm0 0" fill="#fff"/><path d="m165.542969 203.742188c-4.144531 0-7.5-3.355469-7.5-7.5v-10.730469c0-4.140625 3.355469-7.5 7.5-7.5 4.140625 0 7.5 3.359375 7.5 7.5v10.730469c0 4.144531-3.359375 7.5-7.5 7.5zm0 0" fill="#4e5660"/><path d="m249.261719 204.453125c0-12.457031-9.023438-13.625-20.152344-13.625-11.132813 0-20.152344 1.167969-20.152344 13.625 0 12.453125 9.019531 22.550781 20.152344 22.550781 11.128906 0 20.152344-10.097656 20.152344-22.550781zm0 0" fill="#4e5660"/><path d="m292.675781 203.742188c-4.140625 0-7.5-3.355469-7.5-7.5v-10.730469c0-4.140625 3.359375-7.5 7.5-7.5 4.144531 0 7.5 3.359375 7.5 7.5v10.730469c0 4.144531-3.355469 7.5-7.5 7.5zm0 0" fill="#4e5660"/><g fill="#f6e3a3"><path d="m65.480469 351.589844c-1.921875 0-3.839844-.730469-5.304688-2.195313-2.929687-2.929687-2.929687-7.679687 0-10.605469l17.453125-17.453124c2.925782-2.925782 7.675782-2.925782 10.605469 0 2.929687 2.929687 2.929687 7.679687 0 10.609374l-17.453125 17.449219c-1.464844 1.460938-3.382812 2.195313-5.300781 2.195313zm0 0"/><path d="m53.652344 274.015625c-1.917969 0-3.835938-.730469-5.300782-2.199219l-9.261718-9.261718c-2.929688-2.925782-2.929688-7.675782 0-10.605469 2.929687-2.925781 7.675781-2.929688 10.605468.003906l9.261719 9.261719c2.929688 2.925781 2.929688 7.675781 0 10.605468-1.464843 1.460938-3.382812 2.195313-5.304687 2.195313zm0 0"/><path d="m59.265625 218.027344c-4.140625 0-7.5-3.359375-7.5-7.5v-35.046875c0-4.140625 3.359375-7.5 7.5-7.5 4.144531 0 7.5 3.359375 7.5 7.5v35.046875c0 4.140625-3.355469 7.5-7.5 7.5zm0 0"/><path d="m151.679688 328.351562c-1.917969 0-3.835938-.734374-5.300782-2.199218l-19.554687-19.554688c-2.929688-2.929687-2.929688-7.675781 0-10.605468 2.929687-2.929688 7.675781-2.929688 10.605469 0l19.554687 19.554687c2.929687 2.929687 2.929687 7.679687 0 10.605469-1.464844 1.464844-3.382813 2.199218-5.304687 2.199218zm0 0"/><path d="m240.542969 388.945312c-4.140625 0-7.5-3.355468-7.5-7.5v-14.730468c0-4.144532 3.359375-7.5 7.5-7.5s7.5 3.355468 7.5 7.5v14.730468c0 4.144532-3.359375 7.5-7.5 7.5zm0 0"/><path d="m302.515625 137.171875c-1.921875 0-3.839844-.734375-5.304687-2.199219-2.929688-2.925781-2.929688-7.675781 0-10.605468l20.429687-20.429688c2.929687-2.925781 7.679687-2.925781 10.605469.003906 2.929687 2.929688 2.929687 7.675782 0 10.605469l-20.429688 20.429687c-1.464844 1.460938-3.382812 2.195313-5.300781 2.195313zm0 0"/><path d="m152.382812 126.957031c-1.917968 0-3.839843-.730469-5.300781-2.195312l-17.054687-17.054688c-2.929688-2.929687-2.929688-7.679687 0-10.605469 2.929687-2.929687 7.679687-2.929687 10.605468 0l17.054688 17.054688c2.925781 2.929688 2.925781 7.675781 0 10.605469-1.464844 1.464843-3.386719 2.195312-5.304688 2.195312zm0 0"/><path d="m411.257812 283.628906h-28.066406c-4.140625 0-7.5-3.359375-7.5-7.5 0-4.144531 3.359375-7.5 7.5-7.5h28.066406c4.140626 0 7.5 3.355469 7.5 7.5 0 4.140625-3.359374 7.5-7.5 7.5zm0 0"/><path d="m383.191406 216.332031c-4.140625 0-7.5-3.359375-7.5-7.5v-25.972656c0-4.140625 3.359375-7.5 7.5-7.5 4.144532 0 7.5 3.359375 7.5 7.5v25.972656c0 4.140625-3.355468 7.5-7.5 7.5zm0 0"/><path d="m463.390625 154.496094c-1.917969 0-3.839844-.734375-5.300781-2.199219-2.933594-2.925781-2.933594-7.675781-.003906-10.605469l19.210937-19.207031c2.929687-2.929687 7.675781-2.929687 10.605469-.003906 2.929687 2.929687 2.929687 7.679687 0 10.609375l-19.207032 19.207031c-1.464843 1.464844-3.386718 2.199219-5.304687 2.199219zm0 0"/><path d="m403.394531 90.3125c-1.921875 0-3.839843-.730469-5.304687-2.195312l-17.34375-17.34375c-2.929688-2.929688-2.929688-7.675782 0-10.605469 2.929687-2.929688 7.679687-2.929688 10.605468 0l17.34375 17.34375c2.929688 2.925781 2.929688 7.675781 0 10.605469-1.464843 1.464843-3.382812 2.195312-5.300781 2.195312zm0 0"/><path d="m449.839844 75.269531c-1.917969 0-3.835938-.734375-5.300782-2.199219-2.929687-2.929687-2.929687-7.675781 0-10.605468l12.292969-12.292969c2.929688-2.925781 7.675781-2.925781 10.605469 0 2.929688 2.929687 2.929688 7.679687 0 10.605469l-12.292969 12.292968c-1.464843 1.464844-3.386719 2.199219-5.304687 2.199219zm0 0"/><path d="m449.730469 207.339844h-15.65625c-4.144531 0-7.5-3.355469-7.5-7.5 0-4.144532 3.355469-7.5 7.5-7.5h15.65625c4.140625 0 7.5 3.355468 7.5 7.5 0 4.140625-3.359375 7.5-7.5 7.5zm0 0"/><path d="m261.796875 306.167969c-1.921875 0-3.839844-.734375-5.304687-2.199219-2.929688-2.929688-2.929688-7.675781 0-10.605469l17.316406-17.316406c2.929687-2.929687 7.675781-2.929687 10.605468 0 2.929688 2.929687 2.929688 7.675781 0 10.605469l-17.316406 17.316406c-1.464844 1.464844-3.382812 2.199219-5.300781 2.199219zm0 0"/></g></svg>