<svg id="Layer_1" height="512" viewBox="0 0 128 128" width="512" xmlns="http://www.w3.org/2000/svg" data-name="Layer 1"><path d="m94.193 31.223a7.169 7.169 0 0 0 -5.211-2.256 7.143 7.143 0 0 0 -7.124 7.616l.395 5.941a1.38 1.38 0 0 1 -1.379 1.476h-2.858l.517-15a13.3 13.3 0 0 0 -13.288-13.751h-.009a13.3 13.3 0 0 0 -13.278 13.772l1.05 29.279h-3.908a.9.9 0 0 1 -.9-.963l.564-8.7a8.451 8.451 0 0 0 -8.436-9 8.452 8.452 0 0 0 -8.429 9.012l.69 10.423a11.285 11.285 0 0 0 11.225 10.517h.008l9.59-.007.488 13.713-11.014.005a1.75 1.75 0 0 0 -1.749 1.751v7.059a1.75 1.75 0 0 0 1.75 1.749h.381l5.011 17.628a1.75 1.75 0 0 0 1.684 1.271l30.378-.021a1.749 1.749 0 0 0 1.683-1.274l4.988-17.634h.37a1.75 1.75 0 0 0 1.749-1.751v-7.059a1.75 1.75 0 0 0 -1.75-1.749l-10.719.007 1.018-29.521 12.748-.009a4.89 4.89 0 0 0 4.866-4.564l.819-12.612a7.171 7.171 0 0 0 -1.92-5.348zm-50.373 34.866h-.006a7.777 7.777 0 0 1 -7.74-7.245l-.69-10.422a4.953 4.953 0 0 1 4.938-5.281 4.954 4.954 0 0 1 4.943 5.274l-.564 8.7a4.4 4.4 0 0 0 4.395 4.69h4.032l.153 4.279zm35.2 43.15-27.732.019-4.378-15.4 36.468-.025zm6.613-18.908-40.994.028v-3.559l40.994-.028zm-12.476-7.05-15.753.011-1.95-54.4a9.8 9.8 0 0 1 9.782-10.146h.007a9.8 9.8 0 0 1 9.79 10.134l-.519 15.12h-1.174a4.88 4.88 0 0 0 0 9.76h.834zm18.643-34.322a1.383 1.383 0 0 1 -1.376 1.29l-17.081.012a1.38 1.38 0 0 1 0-2.76l7.534-.005a4.88 4.88 0 0 0 4.866-5.2l-.395-5.942a3.645 3.645 0 0 1 3.633-3.885 3.645 3.645 0 0 1 3.637 3.88z"/><path d="m62.516 28.363v-.863a1.75 1.75 0 0 0 -3.5 0v.86a1.75 1.75 0 0 0 3.5 0z"/><path d="m68.062 36.527a1.75 1.75 0 0 0 1.75-1.75v-.906a1.75 1.75 0 1 0 -3.5 0v.906a1.75 1.75 0 0 0 1.75 1.75z"/><path d="m63.352 44.606v-.929a1.75 1.75 0 0 0 -3.5 0v.929a1.75 1.75 0 0 0 3.5 0z"/><path d="m68.573 57.729a1.75 1.75 0 0 0 -1.75 1.75v.836a1.75 1.75 0 0 0 3.5 0v-.836a1.75 1.75 0 0 0 -1.75-1.75z"/><path d="m62.159 63.864a1.75 1.75 0 0 0 -1.75 1.75v.836a1.75 1.75 0 0 0 3.5 0v-.836a1.75 1.75 0 0 0 -1.75-1.75z"/><path d="m66.156 73.159a1.75 1.75 0 0 0 -1.75 1.75v1.115a1.75 1.75 0 1 0 3.5 0v-1.115a1.75 1.75 0 0 0 -1.75-1.75z"/></svg>