<svg height="512pt" viewBox="0 0 512.001 512" width="512pt" xmlns="http://www.w3.org/2000/svg"><path d="m238.867188 119.433594c0 65.960937-53.472657 119.433594-119.433594 119.433594-65.960938 0-119.433594-53.472657-119.433594-119.433594 0-65.960938 53.472656-119.433594 119.433594-119.433594 65.960937 0 119.433594 53.472656 119.433594 119.433594zm0 0" fill="#ffdc5a"/><path d="m368.46875 497h-80.335938c-8.28125 0-15-6.714844-15-15v-162.800781h-49.265624c-43.707032 0-79.265626-35.558594-79.265626-79.265625v-64.265625c0-25.992188 21.140626-47.132813 47.132813-47.132813 25.796875 0 47.132813 20.84375 47.132813 47.132813v49.265625h34.265624v-89.433594c0-30.472656 24.648438-55.167969 55.167969-55.167969 30.46875 0 55.167969 24.652344 55.167969 55.167969v137.632812h34.265625v-33.199218c0-25.753906 20.800781-47.132813 47.132813-47.132813 25.800781 0 47.132812 20.851563 47.132812 47.132813v48.199218c0 43.78125-35.414062 79.269532-79.265625 79.269532h-49.269531v114.597656c.003906 8.285156-6.714844 15-14.996094 15zm0 0" fill="#9adb05"/><path d="m368.46875 497c8.28125 0 15-6.714844 15-15v-114.597656h49.265625c43.851563 0 79.265625-35.488282 79.265625-79.269532v-48.199218c0-26.285156-21.328125-47.132813-47.132812-47.132813-26.332032 0-47.132813 21.378907-47.132813 47.132813v33.199218h-34.265625v-137.632812c0-30.515625-24.695312-55.167969-55.167969-55.167969v416.667969zm0 0" fill="#00ca76"/><path d="m143.53125 337.402344c-8.28125 0-15 6.714844-15 15v33.199218h-34.265625v-33.199218c0-8.285156-6.714844-15-15-15-8.28125 0-15 6.714844-15 15v65.332031h-34.265625v-65.332031c0-8.285156-6.714844-15-15-15s-15 6.714844-15 15v80.332031c0 8.28125 6.714844 15 15 15h49.265625v34.265625c0 8.285156 6.71875 15 15 15 8.285156 0 15-6.714844 15-15v-66.398438h49.269531c8.28125 0 15-6.71875 15-15v-48.199218c-.003906-8.285156-6.71875-15-15.003906-15zm0 0" fill="#00ca76"/><path d="m497 512h-482c-8.285156 0-15-6.714844-15-15s6.714844-15 15-15h482c8.285156 0 15 6.714844 15 15s-6.714844 15-15 15zm0 0" fill="#fffa96"/><path d="m497 482h-168.699219v30h168.699219c8.285156 0 15-6.714844 15-15s-6.714844-15-15-15zm0 0" fill="#ffdc5a"/></svg>