<svg height="512pt" viewBox="-65 0 512 512.0017" width="512pt" xmlns="http://www.w3.org/2000/svg"><path d="m381.988281 90.207031c-1.265625-3.945312-5.488281-6.117187-9.433593-4.851562l-8.21875 2.632812c-.957032-1.671875-1.96875-3.292969-3.03125-4.863281l6.617187-7.015625c2.84375-3.011719 2.707031-7.757813-.308594-10.601563-3.011719-2.839843-7.757812-2.703124-10.601562.308594l-5.460938 5.785156c-.84375-.796874-1.703125-1.574218-2.582031-2.324218l5.082031-7.539063c2.316407-3.433593 1.410157-8.097656-2.023437-10.414062-3.433594-2.3125-8.097656-1.40625-10.414063 2.027343l-5.09375 7.558594c-2.203125-1.132812-4.476562-2.136718-6.808593-3.007812-16.703126-6.226563-35.460938-5.039063-52.816407 3.339844-3.855469 1.863281-7.570312 4.054687-11.117187 6.542968l-1.722656-5.371094c-1.265626-3.941406-5.488282-6.113281-9.433594-4.847656-3.945313 1.265625-6.117188 5.488282-4.851563 9.433594l3.640625 11.339844c-4.335937 4.449218-8.285156 9.410156-11.777344 14.796875l-7.59375-4.628907c-3.539062-2.15625-8.152343-1.039062-10.308593 2.496094-2.160157 3.535156-1.039063 8.152344 2.496093 10.308594l8.175782 4.988281c-1.726563 3.765625-3.253906 7.671875-4.5625 11.699219-3.8125 11.738281-6.761719 23.289062-8.804688 34.449219-8.3125-2.0625-17.003906-3.15625-25.945312-3.15625-2.085938 0-4.160156.0625-6.214844.175781-.3125-6.839844-.875-13.605469-1.683594-20.285156l3.894532-.757813c4.066406-.789062 6.71875-4.726562 5.929687-8.792969-.792969-4.066406-4.726563-6.722656-8.796875-5.929687l-3.261719.632813c-2.308593-12.804688-5.5625-25.246094-9.75-37.230469-4.027343-11.535157-9.238281-22.230469-15.398437-31.75l7.652344-5.945313c3.273437-2.539062 3.867187-7.25 1.324218-10.523437-2.539062-3.269531-7.25-3.863281-10.523437-1.324219l-7.324219 5.6875c-5.839844-7.035156-12.273438-13.136719-19.15625-18.109375-14.203125-10.25-31.503906-16.265625-49.132812-14.964844-16.8125 1.238281-32.605469 8.996094-44.386719 20.953125-5.507813 5.589844-10.125 12.023438-13.800781 18.949219-1.332032 2.515625-2.542969 5.101563-3.628907 7.75l-6.421875-2.996094c-3.753906-1.75-8.21875-.128906-9.96875 3.625-1.75 3.753907-.128906 8.21875 3.625 9.96875l8.195313 3.824219c-.566407 2.453125-1.039063 4.941406-1.417969 7.460938h-7.34375c-4.140625 0-7.5 3.359374-7.5 7.5 0 4.140624 3.359375 7.5 7.5 7.5h6.191406c-.070312 12.175781 1.90625 24.722656 5.96875 37.015624.785156 2.367188 1.628906 4.703126 2.53125 7.007813l-6.703125 4.457031c-3.445312 2.296875-4.382812 6.953125-2.085937 10.402344 2.199218 3.304688 7.035156 4.324219 10.398437 2.085938l4.675781-3.109376c16.5625 32.011719 43.707032 56.972657 66.695313 73.921876-3.777344 9.238281-6.308594 19.117187-7.382813 29.421874l-5.449218-1.585937c-3.976563-1.15625-8.140625 1.132813-9.296875 5.109375-1.152344 3.980469 1.132812 8.140625 5.113281 9.296875l9.078125 2.636719c.117187 9.351562.625 18.773437 1.519531 28.234375l-11.988281 4.105469c-3.917969 1.34375-6.007813 5.609374-4.664063 9.527343 1.304688 3.808594 5.648438 5.992188 9.527344 4.664063l8.898438-3.046875c1.140625 8.277343 2.574218 16.570312 4.300781 24.859375h-20.191406c-9.128907 0-16.554688 7.425781-16.554688 16.554687v11.4375c0 9.125 7.425781 16.550781 16.554688 16.550781h7.308593l28.832032 121.191407c2.320312 9.746093 10.933594 16.550781 20.949218 16.550781h126.730469c10.015625 0 18.628907-6.804688 20.949219-16.546875l28.832031-121.195313h7.308594c9.128906 0 16.554687-7.421874 16.554687-16.550781v-11.4375c0-9.125-7.425781-16.554687-16.554687-16.554687h-20.964844c2.542969-11.511719 4.527344-23.015625 5.925781-34.296875h10.585938c4.140625 0 7.5-3.359375 7.5-7.5 0-4.144531-3.359375-7.5-7.5-7.5h-9.058594c.625-7.9375.945313-15.707031.945313-23.234375 0-3.710938-.191407-7.375-.558594-10.984375 9.457031-5.820313 18.53125-13.105469 26.921875-21.496094 0 0 2.777344 3.3125 2.777344 3.3125 2.558594 3.054687 7.480468 3.515625 10.566406.929687 3.175781-2.660156 3.59375-7.390624.933594-10.566406l-4.0625-4.84375c1.695312-2.023437 3.351562-4.089844 4.964844-6.203125l10.605468 2.054688c3.980469.773437 8.007813-1.902344 8.789063-5.933594.789062-4.066406-1.871094-8.003906-5.9375-8.792969l-4.101563-.792968c4.917969-7.816407 9.257813-16.042969 12.878906-24.515626 9.734376-22.792968 11.023438-46.550781 3.789063-67.597656l6.589844-2.113281c3.941406-1.265625 6.113281-5.488281 4.851562-9.433594zm-137.878906 32.429688c7.078125-21.785157 21.402344-39.238281 39.308594-47.882813 6.628906-3.203125 13.480469-5.082031 20.246093-5.621094-6.863281 5.277344-13.871093 12.429688-20.457031 21.117188-2.5 3.300781-1.851562 8.007812 1.449219 10.507812 3.304688 2.5 8.007812 1.855469 10.507812-1.449218 15.480469-20.429688 29.402344-26.292969 33.113282-25.476563.449218.617188 2.183594 3.605469 2.199218 12.691407.050782 27.914062-16.484374 81.808593-43.972656 113.414062-5.90625-9.398438-13.21875-17.828125-21.644531-24.984375 2.277344-15.472656 6.375-30.242187 12.195313-43.960937 1.617187-3.816407-.164063-8.21875-3.976563-9.835938s-8.214844.164062-9.832031 3.976562c-5.351563 12.609376-9.355469 26.011719-11.953125 39.984376-5.027344-3.082032-10.324219-5.761719-15.851563-7.996094 1.925782-11.105469 4.832032-22.679688 8.667969-34.484375zm-20.316406 207.078125h-56.773438c-5.308593-21.148438-8-43.53125-8-66.625 0-21.332032 4.707031-47.089844 12.28125-67.226563 7.191407-19.117187 16.527344-31.464843 23.785157-31.464843 5.359374 0 14.796874 8.699218 23.761718 33.226562 7.476563 20.445312 12.304688 46.144531 12.304688 65.464844 0 23.601562-2.472656 45.980468-7.359375 66.625zm-62.746094-247.664063c7.570313 21.675781 11.898437 44.96875 12.894531 69.324219-6.328125 1.261719-12.460937 3.082031-18.34375 5.402344-4.320312-55.296875-34.515625-116.902344-62.03125-141.488282 10 1.132813 19.945313 5.164063 29.4375 12.015626 16.320313 11.78125 29.832032 31.21875 38.042969 54.746093zm-32.449219 90.226563c-21.039062-19.464844-39.507812-45.179688-52.402344-73.066406-12.21875-26.421876-17.976562-51.742188-15.410156-67.730469.734375-4.578125 2.550782-10.429688 7.015625-12.285157 3.066407-1.277343 7.75 1.316407 10.269531 2.980469 24.320313 16.035157 60.558594 81.730469 62.929688 141.683594-4.332031 2.519531-8.476562 5.335937-12.402344 8.417969zm-94.695312-55.257813c-8.113282-24.5625-6.726563-50.042969 3.8125-69.914062 2.195312-4.144531 4.738281-7.953125 7.578125-11.390625-1.941407 37.972656 25.445312 102.953125 72.128906 146.65625-5.933594 6.160156-11.148437 13.023437-15.496094 20.453125-43.371093-32.527344-60.941406-64.375-68.023437-85.804688zm68.304687 140.160157c0-41.867188 27.84375-77.355469 65.984375-88.914063-15.25 23.335937-24.171875 63.785156-24.171875 94.824219 0 23.003906 2.542969 45.367187 7.5625 66.625h-41.417969c-5.28125-24.328125-7.957031-48.699219-7.957031-72.535156zm214.890625 89.085937v11.4375c0 .855469-.695312 1.550781-1.550781 1.550781h-170.105469c-4.144531 0-7.503906 3.359375-7.503906 7.503906 0 4.140626 3.359375 7.5 7.503906 7.5h147.375l-28.003906 117.722657c-.703125 2.953125-3.316406 5.019531-6.355469 5.019531h-126.730469c-3.039062 0-5.652343-2.0625-6.355468-5.019531l-28.003906-117.722657h13.144531c4.140625 0 7.5-3.359374 7.5-7.5 0-4.140624-3.359375-7.5-7.5-7.5h-35.875c-.855469 0-1.554688-.695312-1.554688-1.550781v-11.4375c0-.855469.695313-1.554687 1.554688-1.554687h240.910156c.855469 0 1.550781.695312 1.550781 1.550781zm-77.914062-16.550781c4.628906-20.804688 6.972656-43.164063 6.972656-66.625 0-20.933594-5.191406-48.652344-13.21875-70.613282-2.972656-8.136718-6.84375-16.921874-11.652344-24.421874 38.503906 11.335937 66.691406 47 66.691406 89.125 0 22.609374-3.027343 47.570312-8.773437 72.535156zm113.773437-166.261719c-11.613281 27.1875-31.160156 51.449219-53.402343 66.71875-1.441407-5.570313-3.316407-10.96875-5.589844-16.152344 31.953125-33.496093 51.417968-93.25 51.515625-126.984375 3.625 4.335938 6.6875 9.34375 9.074219 14.917969 7.972656 18.589844 7.40625 40.429687-1.597657 61.5zm0 0"/></svg>