<svg height="511pt" viewBox="0 -38 511.99974 511" width="511pt" xmlns="http://www.w3.org/2000/svg"><path d="m428.753906 110.363281v28.535157c0 8.445312-6.847656 15.292968-15.292968 15.292968h-52.484376v66.707032h94.570313c21.226563 0 40.304687-12.964844 48.117187-32.703126 12.003907-30.320312 11.003907-64.246093-2.761718-93.808593-6.210938-13.339844-19.589844-21.867188-34.304688-21.867188-20.902344 0-37.84375 16.941407-37.84375 37.84375zm0 0" fill="#aede7b"/><path d="m83.246094 194.195312v28.535157c0 8.445312 6.847656 15.292969 15.292968 15.292969h52.484376v66.707031h-94.570313c-21.226563 0-40.304687-12.964844-48.117187-32.703125-12.007813-30.324219-11.007813-64.246094 2.761718-93.808594 6.210938-13.339844 19.589844-21.867188 34.304688-21.867188 20.902344 0 37.84375 16.941407 37.84375 37.84375zm0 0" fill="#b4de87"/><path d="m95.527344 237.722656c.285156 22.34375 1.734375 44.695313 4.332031 67.007813h51.164063v-66.707031h-52.484376c-1.03125 0-2.035156-.105469-3.011718-.300782zm0 0" fill="#92d18a"/><path d="m192.429688 47.226562c-32.800782 0-61.070313 23.078126-67.640626 55.210938-14.613281 71.457031-16.796874 144.898438-6.457031 217.101562l7.746094 54.085938h132.699219l7.746094-54.085938c10.339843-72.203124 8.15625-145.644531-6.457032-217.101562-6.566406-32.132812-34.839844-55.210938-67.636718-55.210938zm0 0" fill="#8ec15d"/><path d="m412.136719 154.191406h-51.160157v66.707032h55.480469c-.292969-22.28125-1.730469-44.535157-4.320312-66.707032zm0 0" fill="#92d18a"/><path d="m319.570312 47.226562c32.800782 0 61.070313 23.078126 67.640626 55.210938 14.613281 71.457031 16.796874 144.898438 6.457031 217.101562l-7.742188 54.085938h-132.703125l-7.746094-54.085938c-10.339843-72.203124-8.15625-145.644531 6.453126-217.101562 6.570312-32.132812 34.84375-55.210938 67.640624-55.210938zm0 0" fill="#8ec15d"/><path d="m256 7.351562c-36.804688 0-68.53125 25.894532-75.902344 61.953126-16.398437 80.1875-18.847656 162.605468-7.246094 243.625l8.691407 60.695312h148.914062l8.691407-60.695312c11.601562-81.023438 9.152343-163.4375-7.242188-243.625-7.375-36.058594-39.101562-61.953126-75.90625-61.953126zm0 0" fill="#b4de87"/><path d="m216.925781 17.941406c-18.507812 10.820313-32.289062 29.160156-36.828125 51.367188-16.398437 80.1875-18.847656 162.601562-7.246094 243.621094l8.691407 60.695312h87.285156c-81.457031-88.917969-65.722656-271.269531-51.902344-355.683594zm0 0" fill="#92d18a"/><path d="m216.894531 211.214844c0-10.054688-10.238281-18.210938-22.871093-18.210938-12.628907 0-22.867188 8.15625-22.867188 18.210938 0 10.058594 10.238281 18.210937 22.867188 18.210937 12.632812 0 22.871093-8.152343 22.871093-18.210937zm0 0" fill="#fff"/><path d="m340.84375 211.214844c0-10.054688-10.238281-18.210938-22.867188-18.210938-12.632812 0-22.871093 8.15625-22.871093 18.210938 0 10.058594 10.238281 18.210937 22.871093 18.210937 12.628907 0 22.867188-8.152343 22.867188-18.210937zm0 0" fill="#fff"/><path d="m207.351562 200.550781c-4.140624 0-7.5-3.359375-7.5-7.5v-8.074219c0-4.144531 3.359376-7.5 7.5-7.5 4.144532 0 7.5 3.355469 7.5 7.5v8.074219c0 4.140625-3.355468 7.5-7.5 7.5zm0 0" fill="#495059"/><path d="m304.648438 200.550781c-4.140626 0-7.5-3.359375-7.5-7.5v-8.074219c0-4.144531 3.359374-7.5 7.5-7.5 4.140624 0 7.5 3.355469 7.5 7.5v8.074219c0 4.140625-3.359376 7.5-7.5 7.5zm0 0" fill="#495059"/><path d="m256 206.75c-7.082031 0-13.816406-3.066406-18.480469-8.414062-2.722656-3.121094-2.394531-7.859376.726563-10.582032s7.859375-2.398437 10.582031.726563c1.8125 2.078125 4.425781 3.269531 7.171875 3.269531s5.359375-1.191406 7.171875-3.269531c2.71875-3.121094 7.457031-3.445313 10.578125-.726563 3.125 2.722656 3.449219 7.460938.726562 10.582032-4.660156 5.347656-11.394531 8.414062-18.476562 8.414062zm0 0" fill="#495059"/><path d="m444.753906 435.296875h-377.507812c-18.535156 0-31.0625-18.914063-23.832032-35.980469 6.597657-15.574218 21.871094-25.6875 38.785157-25.6875h347.601562c16.910157 0 32.1875 10.117188 38.785157 25.6875 7.230468 17.066406-5.296876 35.980469-23.832032 35.980469zm0 0" fill="#deb48c"/><g fill="#f8eed1"><path d="m445.203125 98.160156c-1.917969 0-3.839844-.734375-5.300781-2.199218l-12.15625-12.152344c-2.929688-2.929688-2.929688-7.679688 0-10.609375 2.929687-2.925781 7.679687-2.925781 10.605468 0l12.15625 12.15625c2.929688 2.929687 2.929688 7.679687 0 10.605469-1.464843 1.464843-3.386718 2.199218-5.304687 2.199218zm0 0"/><path d="m472.496094 187.832031c-1.917969 0-3.839844-.730469-5.304688-2.195312-2.925781-2.929688-2.925781-7.679688 0-10.605469l9.75-9.746094c2.925782-2.929687 7.675782-2.929687 10.605469 0 2.929687 2.929688 2.929687 7.675782 0 10.605469l-9.746094 9.746094c-1.464843 1.464843-3.386719 2.195312-5.304687 2.195312zm0 0"/><path d="m295.105469 117.21875c-1.917969 0-3.835938-.730469-5.300781-2.195312-2.929688-2.929688-2.929688-7.675782 0-10.605469l14.789062-14.792969c2.929688-2.925781 7.679688-2.925781 10.605469 0 2.929687 2.933594 2.929687 7.679688 0 10.609375l-14.789063 14.789063c-1.464844 1.464843-3.382812 2.195312-5.304687 2.195312zm0 0"/><path d="m229.738281 89.8125c-1.917969 0-3.839843-.730469-5.304687-2.195312l-19.589844-19.589844c-2.929688-2.929688-2.929688-7.675782 0-10.605469s7.679688-2.929687 10.609375 0l19.589844 19.589844c2.929687 2.929687 2.929687 7.675781 0 10.605469-1.464844 1.464843-3.386719 2.195312-5.304688 2.195312zm0 0"/><path d="m284.46875 34.179688c-1.917969 0-3.839844-.734376-5.304688-2.195313-2.925781-2.929687-2.925781-7.679687 0-10.609375l18.683594-18.679688c2.925782-2.929687 7.675782-2.925781 10.605469 0 2.929687 2.929688 2.929687 7.679688 0 10.609376l-18.679687 18.679687c-1.464844 1.460937-3.386719 2.195313-5.304688 2.195313zm0 0"/><path d="m216.273438 324.476562c-1.917969 0-3.839844-.730468-5.304688-2.195312l-12.246094-12.25c-2.929687-2.925781-2.929687-7.675781 0-10.605469 2.925782-2.929687 7.675782-2.929687 10.605469 0l12.25 12.25c2.929687 2.925781 2.929687 7.675781 0 10.605469-1.464844 1.464844-3.386719 2.195312-5.304687 2.195312zm0 0"/><path d="m140.878906 133.65625c-1.921875 0-3.839844-.734375-5.304687-2.199219l-19.902344-19.902343c-2.929687-2.929688-2.929687-7.675782 0-10.605469 2.929687-2.929688 7.679687-2.929688 10.605469 0l19.902344 19.902343c2.929687 2.929688 2.929687 7.679688 0 10.605469-1.460938 1.464844-3.382813 2.199219-5.300782 2.199219zm0 0"/><path d="m380.828125 317.769531c-1.921875 0-3.839844-.734375-5.304687-2.199219-2.929688-2.925781-2.929688-7.675781 0-10.605468l21.328124-21.328125c2.929688-2.925781 7.679688-2.929688 10.609376.003906 2.929687 2.925781 2.929687 7.675781 0 10.605469l-21.328126 21.328125c-1.46875 1.460937-3.386718 2.195312-5.304687 2.195312zm0 0"/><path d="m288.792969 286.105469c-1.917969 0-3.839844-.734375-5.300781-2.195313-2.929688-2.929687-2.929688-7.679687 0-10.609375l15.851562-15.851562c2.929688-2.929688 7.679688-2.929688 10.605469-.003907 2.929687 2.929688 2.929687 7.679688 0 10.609376l-15.851563 15.851562c-1.464844 1.464844-3.382812 2.199219-5.304687 2.199219zm0 0"/><path d="m370.855469 164.085938c-1.917969 0-3.835938-.730469-5.300781-2.195313l-9.878907-9.878906c-2.929687-2.929688-2.929687-7.675781 0-10.605469 2.929688-2.929688 7.675781-2.929688 10.605469 0l9.878906 9.875c2.929688 2.929688 2.929688 7.679688 0 10.609375-1.464844 1.460937-3.386718 2.195313-5.304687 2.195313zm0 0"/><path d="m36.730469 220.09375c-1.917969 0-3.835938-.734375-5.300781-2.195312l-7.742188-7.742188c-2.929688-2.929688-2.929688-7.679688 0-10.609375 2.929688-2.925781 7.679688-2.925781 10.605469 0l7.742187 7.742187c2.929688 2.929688 2.929688 7.679688 0 10.605469-1.464844 1.464844-3.382812 2.199219-5.304687 2.199219zm0 0"/><path d="m64.054688 280.816406c-1.917969 0-3.835938-.730468-5.300782-2.195312-2.929687-2.929688-2.929687-7.675782 0-10.605469l15.296875-15.296875c2.925781-2.929688 7.675781-2.929688 10.605469 0 2.925781 2.929688 2.925781 7.675781 0 10.605469l-15.296875 15.296875c-1.464844 1.464844-3.382813 2.195312-5.304687 2.195312zm0 0"/><path d="m152.5625 347.191406c-1.917969 0-3.839844-.734375-5.304688-2.199218l-13.675781-13.675782c-2.929687-2.929687-2.929687-7.675781 0-10.609375 2.929688-2.925781 7.679688-2.925781 10.609375.003907l13.675782 13.675781c2.925781 2.929687 2.925781 7.679687 0 10.605469-1.46875 1.464843-3.386719 2.199218-5.304688 2.199218zm0 0"/></g><path d="m228.074219 373.625h-145.875c-16.914063 0-32.1875 10.117188-38.785157 25.691406-7.230468 17.066406 5.292969 35.980469 23.832032 35.980469h186.167968c-41.265624-15.175781-44.613281-49.769531-25.339843-61.671875zm0 0" fill="#d19169"/><path d="m407.613281 399.394531c0 4.164063-3.375 7.535157-7.539062 7.535157-4.160157 0-7.535157-3.371094-7.535157-7.535157 0-4.160156 3.375-7.535156 7.535157-7.535156 4.164062 0 7.539062 3.375 7.539062 7.535156zm0 0" fill="#d19169"/><path d="m310.179688 414.46875c0 4.160156-3.375 7.535156-7.535157 7.535156-4.164062 0-7.535156-3.375-7.535156-7.535156 0-4.164062 3.371094-7.535156 7.535156-7.535156 4.160157 0 7.535157 3.371094 7.535157 7.535156zm0 0" fill="#d19169"/><path d="m98.332031 409.277344c0 4.160156-3.375 7.535156-7.535156 7.535156s-7.535156-3.375-7.535156-7.535156c0-4.164063 3.375-7.539063 7.535156-7.539063s7.535156 3.375 7.535156 7.539063zm0 0" fill="#deb48c"/><path d="m180.730469 395.675781c0 4.160157-3.371094 7.535157-7.535157 7.535157-4.160156 0-7.535156-3.375-7.535156-7.535157 0-4.164062 3.375-7.535156 7.535156-7.535156 4.164063 0 7.535157 3.371094 7.535157 7.535156zm0 0" fill="#deb48c"/></svg>