<svg height="511pt" viewBox="-60 0 511 511.99998" width="511pt" xmlns="http://www.w3.org/2000/svg"><g fill="#a5e094"><path d="m152.519531 46.117188c-2.304687 0-4.585937-1.027344-6.109375-2.988282-2.617187-3.371094-2.003906-8.222656 1.363282-10.839844l13.613281-10.570312c3.371093-2.617188 8.226562-2.003906 10.839843 1.363281 2.617188 3.371094 2.007813 8.226563-1.363281 10.84375l-13.609375 10.566407c-1.410156 1.097656-3.078125 1.625-4.734375 1.625zm0 0"/><path d="m27.480469 60.992188c-1.09375 0-2.207031-.230469-3.261719-.726563l-14.292969-6.667969c-3.867187-1.804687-5.539062-6.402344-3.738281-10.269531 1.804688-3.867187 6.40625-5.539063 10.269531-3.734375l14.292969 6.667969c3.867188 1.804687 5.539062 6.402343 3.734375 10.269531-1.308594 2.808594-4.097656 4.460938-7.003906 4.460938zm0 0"/><path d="m22.613281 79.558594h-14.386719c-4.265624 0-7.726562-3.460938-7.726562-7.726563s3.460938-7.726562 7.726562-7.726562h14.386719c4.265625 0 7.726563 3.460937 7.726563 7.726562s-3.460938 7.726563-7.726563 7.726563zm0 0"/><path d="m21.171875 142.71875c-2.5 0-4.949219-1.210938-6.4375-3.449219-2.367187-3.550781-1.402344-8.347656 2.148437-10.710937l12.21875-8.132813c3.554688-2.363281 8.347657-1.402343 10.714844 2.152344 2.363282 3.550781 1.398438 8.347656-2.152344 10.710937l-12.21875 8.132813c-1.316406.875-2.804687 1.296875-4.273437 1.296875zm0 0"/><path d="m183.5625 126.910156c-3.625 0-6.859375-2.558594-7.578125-6.25-.8125-4.191406 1.921875-8.246094 6.109375-9.058594l11.183594-2.175781c4.191406-.816406 8.246094 1.917969 9.0625 6.105469.8125 4.191406-1.921875 8.246094-6.109375 9.0625l-11.183594 2.175781c-.5.09375-.996094.140625-1.484375.140625zm0 0"/><path d="m270.355469 85.117188c-3.269531 0-6.304688-2.089844-7.355469-5.367188l-5.203125-16.203125c-1.304687-4.066406.933594-8.414063 4.996094-9.71875s8.414062.933594 9.71875 4.992187l5.199219 16.207032c1.304687 4.0625-.929688 8.414062-4.992188 9.714844-.785156.253906-1.582031.375-2.363281.375zm0 0"/><path d="m250.90625 106.613281c-1.371094 0-2.761719-.363281-4.015625-1.128906l-14.460937-8.824219c-3.644532-2.222656-4.796876-6.976562-2.574219-10.621094 2.222656-3.640624 6.976562-4.792968 10.621093-2.570312l14.460938 8.820312c3.644531 2.222657 4.796875 6.980469 2.574219 10.621094-1.457031 2.386719-4 3.703125-6.605469 3.703125zm0 0"/><path d="m347.4375 229.945312c-2.207031 0-4.398438-.941406-5.925781-2.765624l-8.425781-10.050782c-2.742188-3.273437-2.3125-8.144531.957031-10.886718 3.269531-2.742188 8.144531-2.3125 10.886719.957031l8.425781 10.054687c2.742187 3.269532 2.3125 8.144532-.957031 10.886719-1.449219 1.210937-3.210938 1.804687-4.960938 1.804687zm0 0"/><path d="m363.535156 206.332031c-.484375 0-.980468-.046875-1.476562-.144531l-15.675782-3.039062c-4.191406-.808594-6.929687-4.863282-6.117187-9.054688.8125-4.1875 4.867187-6.929688 9.054687-6.113281l15.679688 3.039062c4.1875.808594 6.925781 4.863281 6.113281 9.054688-.714843 3.691406-3.949219 6.257812-7.578125 6.257812zm0 0"/><path d="m347.683594 73.984375c-1.488282 0-2.988282-.429687-4.3125-1.324219-3.539063-2.382812-4.472656-7.1875-2.085938-10.722656l9.320313-13.824219c2.386719-3.539062 7.1875-4.472656 10.726562-2.085937 3.539063 2.386718 4.472657 7.1875 2.085938 10.726562l-9.320313 13.820313c-1.492187 2.214843-3.933594 3.410156-6.414062 3.410156zm0 0"/><path d="m360.449219 85.90625c-1.898438 0-3.804688-.699219-5.300781-2.109375-3.101563-2.929687-3.246094-7.816406-.316407-10.921875l11.292969-11.964844c2.929688-3.105468 7.816406-3.246094 10.921875-.316406 3.101563 2.929688 3.246094 7.816406.316406 10.921875l-11.292969 11.964844c-1.515624 1.613281-3.566406 2.425781-5.621093 2.425781zm0 0"/><path d="m369.890625 101.304688c-3.269531 0-6.304687-2.09375-7.359375-5.371094-1.300781-4.0625.9375-8.414063 5-9.714844l14.691406-4.710938c4.0625-1.300781 8.414063.9375 9.714844 5s-.933594 8.414063-5 9.714844l-14.6875 4.710938c-.785156.25-1.578125.371094-2.359375.371094zm0 0"/><path d="m82.851562 309.378906c-3.210937 0-6.207031-2.015625-7.308593-5.222656-1.382813-4.039062.769531-8.429688 4.808593-9.8125l18.164063-6.226562c4.039063-1.382813 8.433594.769531 9.8125 4.808593 1.386719 4.035157-.765625 8.429688-4.804687 9.8125l-18.167969 6.222657c-.828125.285156-1.671875.417968-2.503907.417968zm0 0"/><path d="m98.371094 263.808594c-.710938 0-1.4375-.101563-2.15625-.308594l-14.90625-4.332031c-4.097656-1.1875-6.457032-5.476563-5.265625-9.574219 1.191406-4.097656 5.480469-6.453125 9.574219-5.265625l14.90625 4.332031c4.097656 1.191406 6.457031 5.476563 5.265624 9.574219-.980468 3.378906-4.066406 5.574219-7.417968 5.574219zm0 0"/><path d="m319.847656 296.613281h-17.78125c-4.265625 0-7.722656-3.457031-7.722656-7.726562 0-4.265625 3.457031-7.726563 7.722656-7.726563h17.78125c4.269532 0 7.726563 3.460938 7.726563 7.726563s-3.457031 7.726562-7.726563 7.726562zm0 0"/></g><path d="m370.085938 163.710938c-25.972657 60.789062-83.160157 96.742187-110.394532 86.59375-25.867187-9.644532-39.996094-60.78125-16.191406-134.0625 15.410156-47.433594 58.414062-69.886719 92.832031-57.058594 34.414063 12.832031 53.527344 58.242187 33.753907 104.527344zm0 0" fill="#80c56e"/><path d="m336.332031 59.183594c-5.394531-2.011719-11-3.152344-16.675781-3.46875 14.644531 20.691406 18.914062 51.355468 5.636719 82.433594-10.140625 23.742187-25.050781 43.683593-41.070313 58.582031 9.445313 13.070312 15.910156 28.433593 18.398438 45.097656 24.90625-13.960937 51.835937-41.539063 67.464844-78.117187 19.773437-46.285157.660156-91.695313-33.753907-104.527344zm0 0" fill="#70b25d"/><path d="m172.578125 74.269531c27.773437 79.542969 7.496094 161.390625-4.488281 169.246094-6.039063 3.957031-114.066406-46.386719-141.117188-128.246094-17.507812-52.988281 6.414063-101.714843 45.953125-112.929687 39.535157-11.21875 81.085938 18.757812 99.652344 71.929687zm0 0" fill="#80c56e"/><path d="m137.914062 174.789062c13.871094-10.519531 30.480469-17.621093 48.570313-20.046874-.417969-24.972657-4.265625-52.859376-13.90625-80.472657-18.566406-53.171875-60.117187-83.148437-99.652344-71.929687-9.191406 2.605468-17.535156 7.238281-24.710937 13.480468 31.425781 3.695313 60.925781 31.367188 75.757812 73.84375 10.246094 29.34375 13.949219 58.988282 13.941406 85.125zm0 0" fill="#70b25d"/><path d="m267.679688 411.601562c20.886718-43.765624 36.085937-101.441406 36.085937-154.375 0-57.113281-46.300781-103.414062-103.414063-103.414062-57.109374 0-103.410156 46.300781-103.410156 103.414062 0 57.082032 14.710938 112.671876 34.765625 154.375zm0 0" fill="#80c56e"/><path d="m200.351562 153.8125c-8.777343 0-17.296874 1.097656-25.433593 3.15625 44.816406 11.335938 77.976562 51.921875 77.976562 100.257812 0 52.933594-15.195312 110.609376-36.082031 154.375h50.867188c20.886718-43.765624 36.085937-101.441406 36.085937-154.375 0-57.113281-46.300781-103.414062-103.414063-103.414062zm0 0" fill="#70b25d"/><path d="m230.121094 379.632812c1.101562-2.417968 2.199218-4.941406 3.285156-7.597656 13.003906-31.785156 19.601562-68.367187 19.601562-108.730468 0-1.742188-.046874-3.546876-.117187-5.375-.105469 40.632812-9.121094 84-22.769531 121.703124zm0 0" fill="#80c56e"/><path d="m265.628906 512h-130.550781c-6.695313 0-12.515625-4.597656-14.0625-11.109375l-33.28125-139.898437h225.238281l-33.28125 139.898437c-1.550781 6.511719-7.367187 11.109375-14.0625 11.109375zm0 0" fill="#fa9a39"/><path d="m261.761719 360.992188-33.28125 139.898437c-1.550781 6.511719-7.371094 11.109375-14.066407 11.109375h51.214844c6.691406 0 12.511719-4.597656 14.0625-11.109375l33.28125-139.898437zm0 0" fill="#ed8a2f"/><path d="m324.441406 370.105469h-248.175781c-5.148437 0-9.324219-4.175781-9.324219-9.324219v-11.785156c0-5.148438 4.175782-9.324219 9.324219-9.324219h248.175781c5.148438 0 9.324219 4.175781 9.324219 9.324219v11.785156c0 5.148438-4.175781 9.324219-9.324219 9.324219zm0 0" fill="#c35f58"/><path d="m324.441406 339.671875h-41.746094v30.433594h41.746094c5.148438 0 9.324219-4.175781 9.324219-9.324219v-11.785156c0-5.148438-4.175781-9.324219-9.324219-9.324219zm0 0" fill="#af4b48"/><path d="m125.410156 185.972656c5.050782-5.3125 10.660156-10.082031 16.734375-14.226562-1.890625.945312-3.789062 1.976562-5.785156 3.304687-22.277344-20.554687-42.175781-48.28125-56.429687-78.75-13.335938-28.507812-19.976563-56.441406-17.332032-72.894531 1.011719-6.300781 3.203125-10.195312 6.511719-11.574219.433594-.179687.9375-.265625 1.503906-.265625 1.945313 0 4.617188 1.046875 7.613281 3.023438 25.652344 16.914062 65.085938 91.617187 67.921876 154.558594 4.753906-2.933594 9.765624-5.488282 14.988281-7.632813-5.421875-63.546875-44-139.796875-74.394531-159.835937-.804688-.53125-1.589844-1.003907-2.367188-1.449219-3.820312.332031-7.644531 1.027343-11.449219 2.109375-9.0625 2.566406-17.296875 7.113281-24.40625 13.222656-.476562 1.65625-.878906 3.445312-1.191406 5.390625-3.15625 19.644531 3.792969 50.261719 18.59375 81.898437 14.984375 32.035157 35.949219 61.265626 59.488281 83.121094zm0 0" fill="#a5e094"/><path d="m173.4375 339.671875c-5.929688-20.894531-10.273438-46.40625-10.273438-76.367187 0-21.996094 4.851563-48.554688 12.664063-69.316407 7.414063-19.707031 17.039063-32.441406 24.523437-32.441406 5.527344 0 15.257813 8.972656 24.5 34.261719 7.707032 21.082031 12.6875 47.574218 12.6875 67.496094 0 30.550781-3.984374 55.882812-9.519531 76.367187h15.988281c5.972657-23.519531 9-49.074219 9-76.367187 0-21.585938-5.351562-50.164063-13.628906-72.808594-4.480468-12.261719-10.9375-25.9375-19.507812-34.835938-6.320313-1.207031-12.84375-1.847656-19.519532-1.847656-6.835937 0-13.511718.671875-19.976562 1.933594-20.414062 20.734375-32.675781 70.605468-32.675781 107.558594 0 29.507812 4.046875 55.023437 9.75 76.367187zm0 0" fill="#a5e094"/><path d="m271.1875 120.535156c-6.546875 14.734375-11.785156 31.449219-14.808594 49.761719 4.96875 3.207031 9.644532 6.832031 13.976563 10.820313.078125-.296876.128906-.527344.164062-.722657h.003907c.007812-.054687.011718-.113281.019531-.167969.003906-.023437.007812-.046874.011719-.070312 2.5625-20.265625 7.980468-38.125 14.757812-53.296875 1.679688-3.761719.132812-8.171875-3.535156-10.050781-3.945313-2.019532-8.789063-.324219-10.589844 3.726562zm0 0" fill="#a5e094"/><path d="m354.699219 70.335938c-5.414063-4.816407-11.589844-8.625-18.367188-11.152344-3.925781-1.460938-7.960937-2.445313-12.054687-3.003906-1.4375.699218-2.902344 1.496093-4.394532 2.40625-9.800781 5.984374-20.367187 16.042968-30.128906 29.46875-2.777344 3.820312-1.429687 9.230468 2.777344 11.382812l.085938.042969c3.386718 1.730469 7.527343.738281 9.769531-2.335938 8.929687-12.238281 18.144531-20.832031 25.558593-25.355469 5.519532-3.371093 8.765626-3.742187 9.796876-3.589843.464843.605469 2.324218 3.605469 2.476562 12.949219.484375 29.890624-17.304688 90.6875-50.75 122.578124l-.398438.34375c2.726563 4.542969 5.113282 9.3125 7.125 14.273438 2.90625-2.503906 3.558594-3.0625 3.792969-3.277344 24.539063-23.3125 38.5625-57.425781 44.734375-75.683594 9.152344-27.0625 12.941406-53.386718 9.976563-69.046874zm0 0" fill="#a5e094"/></svg>